<?xml version="1.0" encoding="utf-8"?>
<!-- Generator: Adobe Illustrator 22.1.0, SVG Export Plug-In . SVG Version: 6.00 Build 0)  -->
<svg version="1.1" id="Layer_1" xmlns="http://www.w3.org/2000/svg" xmlns:xlink="http://www.w3.org/1999/xlink" x="0px" y="0px"
	 viewBox="0 0 1200 100" style="enable-background:new 0 0 1200 100;" xml:space="preserve">
<style type="text/css">
	.st0{fill:none;stroke:#565A5C;stroke-miterlimit:10;}
	.st1{fill:#565A5C;stroke:#565A5C;}
</style>
<line class="st0" x1="0.5" y1="50" x2="1200.5" y2="50"/>
<polygon class="st1" points="600.1,8.9 603.7,14.6 608.6,9.8 611.1,16.1 616.7,12.4 617.8,19.2 624.2,16.8 623.8,23.5 630.6,22.5 
	628.8,29.1 635.6,29.5 632.6,35.5 639.1,37.3 634.9,42.6 640.9,45.7 635.7,50.1 640.9,54.3 634.9,57.4 639.1,62.7 632.6,64.5 
	635.6,70.5 628.8,71 630.6,77.5 623.8,76.5 624.2,83.3 617.8,80.8 616.7,87.6 611.1,83.9 608.6,90.2 603.7,85.4 600.1,91.1 
	596.3,85.4 591.4,90.2 588.9,83.9 583.3,87.6 582.2,80.8 575.8,83.3 576.2,76.5 569.4,77.5 571.2,71 564.4,70.5 567.4,64.5 
	560.9,62.7 565.1,57.4 559.1,54.3 564.3,50.1 559.1,45.7 565.1,42.6 560.9,37.3 567.4,35.5 564.4,29.5 571.2,29.1 569.4,22.5 
	576.2,23.5 575.8,16.8 582.2,19.2 583.3,12.4 588.9,16.1 591.4,9.8 596.3,14.6 "/>
</svg>
